<svg width="482" height="337" viewBox="0 0 482 337" fill="none" xmlns="http://www.w3.org/2000/svg">
<g clip-path="url(#clip0_263_6182)">
<path d="M275.189 31.2469L279.093 23.5254V23.4572H274.593V22.5197H280.183V23.5083L276.297 31.2469H275.189ZM284.431 31.3663C283.789 31.3663 283.242 31.1916 282.79 30.8421C282.339 30.4898 281.993 29.9799 281.755 29.3123C281.516 28.6418 281.397 27.8322 281.397 26.8833C281.397 25.9401 281.516 25.1347 281.755 24.4671C281.996 23.7967 282.343 23.2853 282.795 22.933C283.249 22.5779 283.795 22.4004 284.431 22.4004C285.067 22.4004 285.611 22.5779 286.063 22.933C286.518 23.2853 286.864 23.7967 287.103 24.4671C287.344 25.1347 287.465 25.9401 287.465 26.8833C287.465 27.8322 287.346 28.6418 287.107 29.3123C286.868 29.9799 286.523 30.4898 286.072 30.8421C285.62 31.1916 285.073 31.3663 284.431 31.3663ZM284.431 30.4288C285.067 30.4288 285.562 30.1219 285.914 29.5083C286.266 28.8947 286.442 28.0197 286.442 26.8833C286.442 26.1276 286.361 25.4842 286.199 24.9529C286.04 24.4217 285.81 24.0168 285.509 23.7384C285.211 23.46 284.851 23.3208 284.431 23.3208C283.8 23.3208 283.307 23.6319 282.952 24.2541C282.597 24.8734 282.42 25.7498 282.42 26.8833C282.42 27.639 282.499 28.281 282.658 28.8094C282.817 29.3379 283.046 29.7398 283.344 30.0154C283.645 30.291 284.008 30.4288 284.431 30.4288ZM293.533 29.6106V29.1504C293.533 28.8322 293.599 28.541 293.729 28.2768C293.863 28.0097 294.056 27.7967 294.309 27.6376C294.564 27.4756 294.874 27.3947 295.238 27.3947C295.607 27.3947 295.917 27.4756 296.167 27.6376C296.417 27.7967 296.606 28.0097 296.734 28.2768C296.861 28.541 296.925 28.8322 296.925 29.1504V29.6106C296.925 29.9288 296.86 30.2214 296.729 30.4884C296.601 30.7526 296.411 30.9657 296.158 31.1276C295.908 31.2867 295.601 31.3663 295.238 31.3663C294.868 31.3663 294.557 31.2867 294.305 31.1276C294.052 30.9657 293.86 30.7526 293.729 30.4884C293.599 30.2214 293.533 29.9288 293.533 29.6106ZM294.403 29.1504V29.6106C294.403 29.8748 294.465 30.112 294.59 30.3222C294.715 30.5296 294.931 30.6333 295.238 30.6333C295.536 30.6333 295.746 30.5296 295.868 30.3222C295.993 30.112 296.056 29.8748 296.056 29.6106V29.1504C296.056 28.8862 295.996 28.6504 295.877 28.443C295.758 28.2327 295.545 28.1276 295.238 28.1276C294.939 28.1276 294.725 28.2327 294.594 28.443C294.466 28.6504 294.403 28.8862 294.403 29.1504ZM289.187 24.6163V24.156C289.187 23.8379 289.252 23.5467 289.383 23.2825C289.516 23.0154 289.709 22.8023 289.962 22.6433C290.218 22.4813 290.528 22.4004 290.891 22.4004C291.261 22.4004 291.57 22.4813 291.82 22.6433C292.07 22.8023 292.259 23.0154 292.387 23.2825C292.515 23.5467 292.579 23.8379 292.579 24.156V24.6163C292.579 24.9344 292.513 25.2271 292.383 25.4941C292.255 25.7583 292.064 25.9714 291.812 26.1333C291.562 26.2924 291.255 26.3719 290.891 26.3719C290.522 26.3719 290.211 26.2924 289.958 26.1333C289.705 25.9714 289.513 25.7583 289.383 25.4941C289.252 25.2271 289.187 24.9344 289.187 24.6163ZM290.056 24.156V24.6163C290.056 24.8805 290.118 25.1177 290.243 25.3279C290.368 25.5353 290.584 25.639 290.891 25.639C291.189 25.639 291.4 25.5353 291.522 25.3279C291.647 25.1177 291.709 24.8805 291.709 24.6163V24.156C291.709 23.8918 291.65 23.656 291.53 23.4487C291.411 23.2384 291.198 23.1333 290.891 23.1333C290.593 23.1333 290.378 23.2384 290.248 23.4487C290.12 23.656 290.056 23.8918 290.056 24.156ZM289.511 31.2469L295.511 22.5197H296.482L290.482 31.2469H289.511Z" fill="#00F9FF"/>
<path d="M419.134 69.1782C418.776 69.1725 418.418 69.1043 418.06 68.9736C417.702 68.8429 417.376 68.6228 417.08 68.3131C416.785 68.0006 416.547 67.5787 416.368 67.0475C416.189 66.5134 416.1 65.8429 416.1 65.0361C416.1 64.2634 416.172 63.5787 416.317 62.9821C416.462 62.3827 416.672 61.8784 416.948 61.4693C417.224 61.0574 417.556 60.7449 417.945 60.5318C418.337 60.3188 418.779 60.2122 419.27 60.2122C419.759 60.2122 420.194 60.3103 420.574 60.5063C420.958 60.6995 421.27 60.9693 421.512 61.3159C421.753 61.6625 421.91 62.0617 421.981 62.5134H420.941C420.844 62.1213 420.657 61.7961 420.378 61.5375C420.1 61.279 419.731 61.1497 419.27 61.1497C418.594 61.1497 418.062 61.4438 417.672 62.0318C417.286 62.6199 417.091 63.4452 417.089 64.5077H417.157C417.316 64.2662 417.505 64.0603 417.724 63.8898C417.945 63.7165 418.189 63.583 418.456 63.4892C418.724 63.3955 419.006 63.3486 419.305 63.3486C419.805 63.3486 420.262 63.4736 420.677 63.7236C421.091 63.9708 421.424 64.3131 421.674 64.7506C421.924 65.1853 422.049 65.6838 422.049 66.2463C422.049 66.7861 421.928 67.2804 421.687 67.7293C421.445 68.1753 421.106 68.5304 420.668 68.7946C420.233 69.056 419.722 69.1838 419.134 69.1782ZM419.134 68.2407C419.492 68.2407 419.813 68.1512 420.097 67.9722C420.384 67.7932 420.61 67.5532 420.775 67.252C420.942 66.9509 421.026 66.6157 421.026 66.2463C421.026 65.8855 420.945 65.5574 420.783 65.262C420.624 64.9637 420.404 64.7265 420.123 64.5503C419.844 64.3742 419.526 64.2861 419.168 64.2861C418.898 64.2861 418.647 64.3401 418.414 64.448C418.181 64.5532 417.976 64.698 417.8 64.8827C417.627 65.0674 417.491 65.279 417.391 65.5176C417.292 65.7534 417.242 66.002 417.242 66.2634C417.242 66.61 417.323 66.9338 417.485 67.235C417.65 67.5361 417.874 67.779 418.158 67.9637C418.445 68.1483 418.77 68.2407 419.134 68.2407ZM426.52 69.1782C425.935 69.1782 425.418 69.0745 424.969 68.8671C424.523 68.6568 424.175 68.3685 423.925 68.002C423.675 67.6327 423.551 67.2122 423.554 66.7407C423.551 66.3713 423.624 66.0304 423.771 65.7179C423.919 65.4026 424.121 65.1398 424.377 64.9296C424.635 64.7165 424.923 64.5816 425.242 64.5247V64.4736C424.824 64.3657 424.492 64.1313 424.244 63.7705C423.997 63.4068 423.875 62.9935 423.878 62.5304C423.875 62.0872 423.987 61.6909 424.215 61.3415C424.442 60.9921 424.754 60.7165 425.152 60.5148C425.553 60.3131 426.009 60.2122 426.52 60.2122C427.026 60.2122 427.477 60.3131 427.875 60.5148C428.273 60.7165 428.585 60.9921 428.813 61.3415C429.043 61.6909 429.159 62.0872 429.162 62.5304C429.159 62.9935 429.033 63.4068 428.783 63.7705C428.536 64.1313 428.208 64.3657 427.798 64.4736V64.5247C428.114 64.5816 428.398 64.7165 428.651 64.9296C428.904 65.1398 429.105 65.4026 429.256 65.7179C429.406 66.0304 429.483 66.3713 429.486 66.7407C429.483 67.2122 429.355 67.6327 429.102 68.002C428.852 68.3685 428.504 68.6568 428.058 68.8671C427.615 69.0745 427.102 69.1782 426.52 69.1782ZM426.52 68.2407C426.915 68.2407 427.256 68.1767 427.543 68.0489C427.83 67.9211 428.051 67.7407 428.208 67.5077C428.364 67.2747 428.443 67.002 428.446 66.6895C428.443 66.36 428.358 66.0688 428.191 65.8159C428.023 65.5631 427.794 65.3642 427.504 65.2193C427.218 65.0745 426.889 65.002 426.52 65.002C426.148 65.002 425.816 65.0745 425.523 65.2193C425.233 65.3642 425.004 65.5631 424.837 65.8159C424.672 66.0688 424.591 66.36 424.594 66.6895C424.591 67.002 424.666 67.2747 424.82 67.5077C424.976 67.7407 425.199 67.9211 425.489 68.0489C425.779 68.1767 426.122 68.2407 426.52 68.2407ZM426.52 64.0986C426.833 64.0986 427.11 64.0361 427.351 63.9111C427.595 63.7861 427.787 63.6114 427.926 63.387C428.066 63.1625 428.137 62.8997 428.139 62.5986C428.137 62.3032 428.067 62.0461 427.931 61.8273C427.794 61.6057 427.605 61.4353 427.364 61.3159C427.122 61.1938 426.841 61.1327 426.52 61.1327C426.193 61.1327 425.908 61.1938 425.664 61.3159C425.419 61.4353 425.23 61.6057 425.097 61.8273C424.963 62.0461 424.898 62.3032 424.901 62.5986C424.898 62.8997 424.965 63.1625 425.101 63.387C425.24 63.6114 425.432 63.7861 425.676 63.9111C425.921 64.0361 426.202 64.0986 426.52 64.0986ZM435.568 67.4225V66.9622C435.568 66.6441 435.633 66.3529 435.764 66.0887C435.898 65.8216 436.091 65.6086 436.344 65.4495C436.599 65.2875 436.909 65.2066 437.273 65.2066C437.642 65.2066 437.952 65.2875 438.202 65.4495C438.452 65.6086 438.64 65.8216 438.768 66.0887C438.896 66.3529 438.96 66.6441 438.96 66.9622V67.4225C438.96 67.7407 438.895 68.0333 438.764 68.3003C438.636 68.5645 438.446 68.7776 438.193 68.9395C437.943 69.0986 437.636 69.1782 437.273 69.1782C436.903 69.1782 436.592 69.0986 436.339 68.9395C436.086 68.7776 435.895 68.5645 435.764 68.3003C435.633 68.0333 435.568 67.7407 435.568 67.4225ZM436.437 66.9622V67.4225C436.437 67.6867 436.5 67.9239 436.625 68.1341C436.75 68.3415 436.966 68.4452 437.273 68.4452C437.571 68.4452 437.781 68.3415 437.903 68.1341C438.028 67.9239 438.091 67.6867 438.091 67.4225V66.9622C438.091 66.698 438.031 66.4622 437.912 66.2549C437.792 66.0446 437.579 65.9395 437.273 65.9395C436.974 65.9395 436.76 66.0446 436.629 66.2549C436.501 66.4622 436.437 66.698 436.437 66.9622ZM431.221 62.4282V61.9679C431.221 61.6497 431.287 61.3586 431.417 61.0943C431.551 60.8273 431.744 60.6142 431.997 60.4551C432.253 60.2932 432.562 60.2122 432.926 60.2122C433.295 60.2122 433.605 60.2932 433.855 60.4551C434.105 60.6142 434.294 60.8273 434.422 61.0943C434.55 61.3586 434.613 61.6497 434.613 61.9679V62.4282C434.613 62.7463 434.548 63.039 434.417 63.306C434.29 63.5702 434.099 63.7833 433.846 63.9452C433.596 64.1043 433.29 64.1838 432.926 64.1838C432.557 64.1838 432.246 64.1043 431.993 63.9452C431.74 63.7833 431.548 63.5702 431.417 63.306C431.287 63.039 431.221 62.7463 431.221 62.4282ZM432.091 61.9679V62.4282C432.091 62.6924 432.153 62.9296 432.278 63.1398C432.403 63.3472 432.619 63.4509 432.926 63.4509C433.224 63.4509 433.434 63.3472 433.557 63.1398C433.682 62.9296 433.744 62.6924 433.744 62.4282V61.9679C433.744 61.7037 433.684 61.4679 433.565 61.2605C433.446 61.0503 433.233 60.9452 432.926 60.9452C432.628 60.9452 432.413 61.0503 432.282 61.2605C432.155 61.4679 432.091 61.7037 432.091 61.9679ZM431.545 69.0588L437.545 60.3316H438.517L432.517 69.0588H431.545Z" fill="#00F9FF"/>
<path d="M37.7527 220.363V219.596L40.6334 216.442C40.9715 216.073 41.2499 215.752 41.4686 215.479C41.6874 215.204 41.8493 214.945 41.9544 214.704C42.0624 214.459 42.1163 214.204 42.1163 213.937C42.1163 213.63 42.0425 213.364 41.8948 213.14C41.7499 212.915 41.551 212.742 41.2982 212.62C41.0453 212.498 40.7612 212.437 40.4459 212.437C40.1107 212.437 39.8181 212.506 39.5681 212.645C39.3209 212.782 39.1291 212.974 38.9928 213.221C38.8592 213.468 38.7925 213.758 38.7925 214.09H37.7868C37.7868 213.579 37.9047 213.13 38.1405 212.743C38.3763 212.357 38.6973 212.056 39.1036 211.84C39.5127 211.624 39.9715 211.516 40.48 211.516C40.9913 211.516 41.4445 211.624 41.8394 211.84C42.2342 212.056 42.5439 212.347 42.7683 212.714C42.9928 213.08 43.105 213.488 43.105 213.937C43.105 214.258 43.0467 214.572 42.9303 214.878C42.8166 215.182 42.6178 215.522 42.3337 215.897C42.0524 216.269 41.6618 216.724 41.1618 217.261L39.2016 219.357V219.425H43.2584V220.363H37.7527ZM47.8649 220.482C47.2229 220.482 46.676 220.307 46.2243 219.958C45.7726 219.606 45.4274 219.096 45.1888 218.428C44.9502 217.758 44.8308 216.948 44.8308 215.999C44.8308 215.056 44.9502 214.251 45.1888 213.583C45.4303 212.913 45.7769 212.401 46.2286 212.049C46.6831 211.694 47.2286 211.516 47.8649 211.516C48.5013 211.516 49.0453 211.694 49.497 212.049C49.9516 212.401 50.2982 212.913 50.5368 213.583C50.7783 214.251 50.899 215.056 50.899 215.999C50.899 216.948 50.7797 217.758 50.5411 218.428C50.3024 219.096 49.9573 219.606 49.5056 219.958C49.0538 220.307 48.507 220.482 47.8649 220.482ZM47.8649 219.545C48.5013 219.545 48.9956 219.238 49.3479 218.624C49.7002 218.011 49.8763 217.136 49.8763 215.999C49.8763 215.243 49.7953 214.6 49.6334 214.069C49.4743 213.538 49.2442 213.133 48.9431 212.854C48.6448 212.576 48.2854 212.437 47.8649 212.437C47.2342 212.437 46.7413 212.748 46.3862 213.37C46.0311 213.989 45.8536 214.866 45.8536 215.999C45.8536 216.755 45.9331 217.397 46.0922 217.925C46.2513 218.454 46.48 218.856 46.7783 219.131C47.0794 219.407 47.4416 219.545 47.8649 219.545ZM56.9672 218.726V218.266C56.9672 217.948 57.0325 217.657 57.1632 217.393C57.2967 217.126 57.4899 216.913 57.7428 216.753C57.9985 216.591 58.3081 216.511 58.6717 216.511C59.0411 216.511 59.3507 216.591 59.6007 216.753C59.8507 216.913 60.0396 217.126 60.1675 217.393C60.2953 217.657 60.3592 217.948 60.3592 218.266V218.726C60.3592 219.045 60.2939 219.337 60.1632 219.604C60.0354 219.868 59.845 220.082 59.5922 220.243C59.3422 220.403 59.0354 220.482 58.6717 220.482C58.3024 220.482 57.9913 220.403 57.7385 220.243C57.4857 220.082 57.2939 219.868 57.1632 219.604C57.0325 219.337 56.9672 219.045 56.9672 218.726ZM57.8365 218.266V218.726C57.8365 218.991 57.899 219.228 58.024 219.438C58.149 219.645 58.3649 219.749 58.6717 219.749C58.97 219.749 59.1803 219.645 59.3024 219.438C59.4274 219.228 59.4899 218.991 59.4899 218.726V218.266C59.4899 218.002 59.4303 217.766 59.311 217.559C59.1916 217.349 58.9786 217.243 58.6717 217.243C58.3735 217.243 58.159 217.349 58.0283 217.559C57.9004 217.766 57.8365 218.002 57.8365 218.266ZM52.6206 213.732V213.272C52.6206 212.954 52.686 212.663 52.8166 212.398C52.9502 212.131 53.1433 211.918 53.3962 211.759C53.6519 211.597 53.9615 211.516 54.3252 211.516C54.6945 211.516 55.0041 211.597 55.2541 211.759C55.5041 211.918 55.6931 212.131 55.8209 212.398C55.9487 212.663 56.0127 212.954 56.0127 213.272V213.732C56.0127 214.05 55.9473 214.343 55.8166 214.61C55.6888 214.874 55.4985 215.087 55.2456 215.249C54.9956 215.408 54.6888 215.488 54.3252 215.488C53.9558 215.488 53.6448 215.408 53.3919 215.249C53.1391 215.087 52.9473 214.874 52.8166 214.61C52.686 214.343 52.6206 214.05 52.6206 213.732ZM53.4899 213.272V213.732C53.4899 213.996 53.5524 214.234 53.6774 214.444C53.8024 214.651 54.0183 214.755 54.3252 214.755C54.6235 214.755 54.8337 214.651 54.9558 214.444C55.0808 214.234 55.1433 213.996 55.1433 213.732V213.272C55.1433 213.008 55.0837 212.772 54.9644 212.564C54.845 212.354 54.632 212.249 54.3252 212.249C54.0269 212.249 53.8124 212.354 53.6817 212.564C53.5538 212.772 53.4899 213.008 53.4899 213.272ZM52.9445 220.363L58.9445 211.636H59.9161L53.9161 220.363H52.9445Z" fill="#00F9FF"/>
<path d="M138.547 197.67V196.903L141.428 193.75C141.766 193.38 142.044 193.059 142.263 192.787C142.482 192.511 142.644 192.252 142.749 192.011C142.857 191.767 142.911 191.511 142.911 191.244C142.911 190.937 142.837 190.671 142.689 190.447C142.544 190.223 142.346 190.049 142.093 189.927C141.84 189.805 141.556 189.744 141.24 189.744C140.905 189.744 140.613 189.814 140.363 189.953C140.115 190.089 139.924 190.281 139.787 190.528C139.654 190.775 139.587 191.065 139.587 191.397H138.581C138.581 190.886 138.699 190.437 138.935 190.051C139.171 189.664 139.492 189.363 139.898 189.147C140.307 188.931 140.766 188.823 141.275 188.823C141.786 188.823 142.239 188.931 142.634 189.147C143.029 189.363 143.338 189.654 143.563 190.021C143.787 190.387 143.9 190.795 143.9 191.244C143.9 191.565 143.841 191.879 143.725 192.186C143.611 192.49 143.412 192.829 143.128 193.204C142.847 193.576 142.456 194.031 141.956 194.568L139.996 196.664V196.733H144.053V197.67H138.547ZM148.54 197.789C148.04 197.789 147.59 197.69 147.189 197.491C146.789 197.292 146.468 197.019 146.226 196.673C145.985 196.326 145.853 195.931 145.83 195.488H146.853C146.892 195.883 147.071 196.21 147.39 196.468C147.711 196.724 148.094 196.852 148.54 196.852C148.898 196.852 149.216 196.768 149.495 196.6C149.776 196.433 149.996 196.203 150.155 195.91C150.317 195.615 150.398 195.281 150.398 194.909C150.398 194.528 150.314 194.189 150.147 193.89C149.982 193.589 149.755 193.352 149.465 193.179C149.175 193.005 148.844 192.917 148.472 192.914C148.205 192.912 147.931 192.953 147.65 193.038C147.368 193.12 147.137 193.227 146.955 193.358L145.966 193.238L146.495 188.943H151.029V189.88H147.381L147.074 192.454H147.125C147.304 192.312 147.529 192.194 147.799 192.1C148.069 192.007 148.35 191.96 148.642 191.96C149.177 191.96 149.652 192.088 150.07 192.343C150.49 192.596 150.82 192.943 151.059 193.383C151.3 193.823 151.421 194.326 151.421 194.892C151.421 195.448 151.296 195.946 151.046 196.383C150.799 196.818 150.458 197.162 150.023 197.414C149.588 197.664 149.094 197.789 148.54 197.789ZM157.563 196.034V195.573C157.563 195.255 157.628 194.964 157.759 194.7C157.892 194.433 158.085 194.22 158.338 194.061C158.594 193.899 158.903 193.818 159.267 193.818C159.636 193.818 159.946 193.899 160.196 194.061C160.446 194.22 160.635 194.433 160.763 194.7C160.891 194.964 160.955 195.255 160.955 195.573V196.034C160.955 196.352 160.889 196.644 160.759 196.912C160.631 197.176 160.44 197.389 160.188 197.551C159.938 197.71 159.631 197.789 159.267 197.789C158.898 197.789 158.587 197.71 158.334 197.551C158.081 197.389 157.889 197.176 157.759 196.912C157.628 196.644 157.563 196.352 157.563 196.034ZM158.432 195.573V196.034C158.432 196.298 158.494 196.535 158.619 196.745C158.744 196.953 158.96 197.056 159.267 197.056C159.565 197.056 159.776 196.953 159.898 196.745C160.023 196.535 160.085 196.298 160.085 196.034V195.573C160.085 195.309 160.026 195.073 159.906 194.866C159.787 194.656 159.574 194.551 159.267 194.551C158.969 194.551 158.754 194.656 158.624 194.866C158.496 195.073 158.432 195.309 158.432 195.573ZM153.216 191.039V190.579C153.216 190.261 153.281 189.97 153.412 189.706C153.545 189.439 153.739 189.225 153.992 189.066C154.247 188.904 154.557 188.823 154.92 188.823C155.29 188.823 155.599 188.904 155.849 189.066C156.099 189.225 156.288 189.439 156.416 189.706C156.544 189.97 156.608 190.261 156.608 190.579V191.039C156.608 191.358 156.543 191.65 156.412 191.917C156.284 192.181 156.094 192.394 155.841 192.556C155.591 192.715 155.284 192.795 154.92 192.795C154.551 192.795 154.24 192.715 153.987 192.556C153.734 192.394 153.543 192.181 153.412 191.917C153.281 191.65 153.216 191.358 153.216 191.039ZM154.085 190.579V191.039C154.085 191.304 154.148 191.541 154.273 191.751C154.398 191.958 154.614 192.062 154.92 192.062C155.219 192.062 155.429 191.958 155.551 191.751C155.676 191.541 155.739 191.304 155.739 191.039V190.579C155.739 190.315 155.679 190.079 155.56 189.872C155.44 189.662 155.227 189.556 154.92 189.556C154.622 189.556 154.408 189.662 154.277 189.872C154.149 190.079 154.085 190.315 154.085 190.579ZM153.54 197.67L159.54 188.943H160.511L154.511 197.67H153.54Z" fill="#00F9FF"/>
<path d="M188.07 259.858V268.585H187.013V260.966H186.962L184.831 262.38V261.307L187.013 259.858H188.07ZM193.426 268.704C192.784 268.704 192.238 268.53 191.786 268.18C191.334 267.828 190.989 267.318 190.75 266.65C190.512 265.98 190.392 265.17 190.392 264.221C190.392 263.278 190.512 262.473 190.75 261.805C190.992 261.135 191.338 260.623 191.79 260.271C192.245 259.916 192.79 259.738 193.426 259.738C194.063 259.738 194.607 259.916 195.059 260.271C195.513 260.623 195.86 261.135 196.098 261.805C196.34 262.473 196.461 263.278 196.461 264.221C196.461 265.17 196.341 265.98 196.103 266.65C195.864 267.318 195.519 267.828 195.067 268.18C194.615 268.53 194.068 268.704 193.426 268.704ZM193.426 267.767C194.063 267.767 194.557 267.46 194.909 266.846C195.262 266.233 195.438 265.358 195.438 264.221C195.438 263.466 195.357 262.822 195.195 262.291C195.036 261.76 194.806 261.355 194.505 261.076C194.206 260.798 193.847 260.659 193.426 260.659C192.796 260.659 192.303 260.97 191.948 261.592C191.593 262.211 191.415 263.088 191.415 264.221C191.415 264.977 191.495 265.619 191.654 266.147C191.813 266.676 192.041 267.078 192.34 267.353C192.641 267.629 193.003 267.767 193.426 267.767ZM202.529 266.949V266.488C202.529 266.17 202.594 265.879 202.725 265.615C202.858 265.348 203.051 265.135 203.304 264.976C203.56 264.814 203.87 264.733 204.233 264.733C204.603 264.733 204.912 264.814 205.162 264.976C205.412 265.135 205.601 265.348 205.729 265.615C205.857 265.879 205.921 266.17 205.921 266.488V266.949C205.921 267.267 205.855 267.559 205.725 267.826C205.597 268.091 205.407 268.304 205.154 268.466C204.904 268.625 204.597 268.704 204.233 268.704C203.864 268.704 203.553 268.625 203.3 268.466C203.047 268.304 202.855 268.091 202.725 267.826C202.594 267.559 202.529 267.267 202.529 266.949ZM203.398 266.488V266.949C203.398 267.213 203.461 267.45 203.586 267.66C203.711 267.868 203.926 267.971 204.233 267.971C204.532 267.971 204.742 267.868 204.864 267.66C204.989 267.45 205.051 267.213 205.051 266.949V266.488C205.051 266.224 204.992 265.988 204.872 265.781C204.753 265.571 204.54 265.466 204.233 265.466C203.935 265.466 203.72 265.571 203.59 265.781C203.462 265.988 203.398 266.224 203.398 266.488ZM198.182 261.954V261.494C198.182 261.176 198.247 260.885 198.378 260.62C198.512 260.353 198.705 260.14 198.958 259.981C199.213 259.819 199.523 259.738 199.887 259.738C200.256 259.738 200.566 259.819 200.816 259.981C201.066 260.14 201.255 260.353 201.382 260.62C201.51 260.885 201.574 261.176 201.574 261.494V261.954C201.574 262.272 201.509 262.565 201.378 262.832C201.25 263.096 201.06 263.309 200.807 263.471C200.557 263.63 200.25 263.71 199.887 263.71C199.517 263.71 199.206 263.63 198.953 263.471C198.701 263.309 198.509 263.096 198.378 262.832C198.247 262.565 198.182 262.272 198.182 261.954ZM199.051 261.494V261.954C199.051 262.218 199.114 262.456 199.239 262.666C199.364 262.873 199.58 262.977 199.887 262.977C200.185 262.977 200.395 262.873 200.517 262.666C200.642 262.456 200.705 262.218 200.705 261.954V261.494C200.705 261.23 200.645 260.994 200.526 260.787C200.407 260.576 200.193 260.471 199.887 260.471C199.588 260.471 199.374 260.576 199.243 260.787C199.115 260.994 199.051 261.23 199.051 261.494ZM198.506 268.585L204.506 259.858H205.478L199.478 268.585H198.506Z" fill="#00F9FF"/>
<path d="M288.745 208.171C288.183 208.171 287.681 208.075 287.241 207.882C286.803 207.688 286.455 207.42 286.197 207.076C285.941 206.73 285.802 206.328 285.779 205.87H286.853C286.876 206.151 286.972 206.394 287.143 206.599C287.313 206.801 287.536 206.957 287.812 207.068C288.087 207.178 288.393 207.234 288.728 207.234C289.103 207.234 289.435 207.168 289.725 207.038C290.015 206.907 290.242 206.725 290.407 206.492C290.572 206.259 290.654 205.99 290.654 205.683C290.654 205.362 290.575 205.079 290.416 204.835C290.257 204.588 290.024 204.394 289.717 204.255C289.41 204.116 289.035 204.046 288.592 204.046H287.893V203.109H288.592C288.938 203.109 289.242 203.046 289.504 202.921C289.768 202.796 289.974 202.62 290.122 202.393C290.272 202.166 290.347 201.899 290.347 201.592C290.347 201.296 290.282 201.039 290.151 200.82C290.021 200.602 289.836 200.431 289.597 200.309C289.362 200.187 289.083 200.126 288.762 200.126C288.461 200.126 288.177 200.181 287.91 200.292C287.646 200.4 287.43 200.558 287.262 200.765C287.095 200.97 287.004 201.217 286.989 201.507H285.967C285.984 201.049 286.122 200.649 286.38 200.305C286.639 199.958 286.977 199.688 287.394 199.495C287.815 199.302 288.276 199.205 288.779 199.205C289.319 199.205 289.782 199.315 290.168 199.534C290.555 199.749 290.852 200.035 291.059 200.39C291.266 200.745 291.37 201.129 291.37 201.541C291.37 202.032 291.241 202.451 290.982 202.798C290.727 203.144 290.379 203.384 289.938 203.518V203.586C290.489 203.677 290.92 203.911 291.23 204.289C291.539 204.664 291.694 205.129 291.694 205.683C291.694 206.157 291.565 206.583 291.306 206.961C291.051 207.336 290.701 207.632 290.258 207.847C289.815 208.063 289.31 208.171 288.745 208.171ZM296.284 208.171C295.641 208.171 295.095 207.997 294.643 207.647C294.191 207.295 293.846 206.785 293.607 206.117C293.369 205.447 293.249 204.637 293.249 203.688C293.249 202.745 293.369 201.94 293.607 201.272C293.849 200.602 294.195 200.09 294.647 199.738C295.102 199.383 295.647 199.205 296.284 199.205C296.92 199.205 297.464 199.383 297.916 199.738C298.37 200.09 298.717 200.602 298.955 201.272C299.197 201.94 299.318 202.745 299.318 203.688C299.318 204.637 299.198 205.447 298.96 206.117C298.721 206.785 298.376 207.295 297.924 207.647C297.472 207.997 296.926 208.171 296.284 208.171ZM296.284 207.234C296.92 207.234 297.414 206.927 297.766 206.313C298.119 205.7 298.295 204.825 298.295 203.688C298.295 202.933 298.214 202.289 298.052 201.758C297.893 201.227 297.663 200.822 297.362 200.543C297.063 200.265 296.704 200.126 296.284 200.126C295.653 200.126 295.16 200.437 294.805 201.059C294.45 201.678 294.272 202.555 294.272 203.688C294.272 204.444 294.352 205.086 294.511 205.615C294.67 206.143 294.899 206.545 295.197 206.82C295.498 207.096 295.86 207.234 296.284 207.234ZM305.386 206.416V205.955C305.386 205.637 305.451 205.346 305.582 205.082C305.715 204.815 305.909 204.602 306.161 204.443C306.417 204.281 306.727 204.2 307.09 204.2C307.46 204.2 307.769 204.281 308.019 204.443C308.269 204.602 308.458 204.815 308.586 205.082C308.714 205.346 308.778 205.637 308.778 205.955V206.416C308.778 206.734 308.712 207.026 308.582 207.293C308.454 207.558 308.264 207.771 308.011 207.933C307.761 208.092 307.454 208.171 307.09 208.171C306.721 208.171 306.41 208.092 306.157 207.933C305.904 207.771 305.712 207.558 305.582 207.293C305.451 207.026 305.386 206.734 305.386 206.416ZM306.255 205.955V206.416C306.255 206.68 306.318 206.917 306.443 207.127C306.568 207.335 306.784 207.438 307.09 207.438C307.389 207.438 307.599 207.335 307.721 207.127C307.846 206.917 307.909 206.68 307.909 206.416V205.955C307.909 205.691 307.849 205.455 307.73 205.248C307.61 205.038 307.397 204.933 307.09 204.933C306.792 204.933 306.578 205.038 306.447 205.248C306.319 205.455 306.255 205.691 306.255 205.955ZM301.039 201.421V200.961C301.039 200.643 301.105 200.352 301.235 200.088C301.369 199.82 301.562 199.607 301.815 199.448C302.07 199.286 302.38 199.205 302.744 199.205C303.113 199.205 303.423 199.286 303.673 199.448C303.923 199.607 304.112 199.82 304.239 200.088C304.367 200.352 304.431 200.643 304.431 200.961V201.421C304.431 201.74 304.366 202.032 304.235 202.299C304.107 202.563 303.917 202.776 303.664 202.938C303.414 203.097 303.107 203.177 302.744 203.177C302.374 203.177 302.063 203.097 301.81 202.938C301.558 202.776 301.366 202.563 301.235 202.299C301.105 202.032 301.039 201.74 301.039 201.421ZM301.909 200.961V201.421C301.909 201.686 301.971 201.923 302.096 202.133C302.221 202.34 302.437 202.444 302.744 202.444C303.042 202.444 303.252 202.34 303.374 202.133C303.499 201.923 303.562 201.686 303.562 201.421V200.961C303.562 200.697 303.502 200.461 303.383 200.254C303.264 200.043 303.051 199.938 302.744 199.938C302.445 199.938 302.231 200.043 302.1 200.254C301.972 200.461 301.909 200.697 301.909 200.961ZM301.363 208.052L307.363 199.325H308.335L302.335 208.052H301.363Z" fill="#00F9FF"/>
<path d="M451.811 232.645V231.878L454.692 228.725C455.03 228.355 455.308 228.034 455.527 227.762C455.746 227.486 455.907 227.228 456.013 226.986C456.121 226.742 456.175 226.486 456.175 226.219C456.175 225.912 456.101 225.647 455.953 225.422C455.808 225.198 455.609 225.025 455.356 224.902C455.103 224.78 454.819 224.719 454.504 224.719C454.169 224.719 453.876 224.789 453.626 224.928C453.379 225.064 453.187 225.256 453.051 225.503C452.917 225.75 452.851 226.04 452.851 226.373H451.845C451.845 225.861 451.963 225.412 452.199 225.026C452.434 224.64 452.755 224.338 453.162 224.123C453.571 223.907 454.03 223.799 454.538 223.799C455.05 223.799 455.503 223.907 455.898 224.123C456.292 224.338 456.602 224.63 456.827 224.996C457.051 225.363 457.163 225.77 457.163 226.219C457.163 226.54 457.105 226.854 456.988 227.161C456.875 227.465 456.676 227.804 456.392 228.179C456.111 228.552 455.72 229.006 455.22 229.543L453.26 231.64V231.708H457.317V232.645H451.811ZM461.804 232.765C461.304 232.765 460.853 232.665 460.453 232.466C460.052 232.267 459.731 231.995 459.49 231.648C459.248 231.302 459.116 230.907 459.094 230.463H460.116C460.156 230.858 460.335 231.185 460.653 231.444C460.974 231.699 461.358 231.827 461.804 231.827C462.162 231.827 462.48 231.743 462.758 231.576C463.04 231.408 463.26 231.178 463.419 230.885C463.581 230.59 463.662 230.256 463.662 229.884C463.662 229.503 463.578 229.164 463.41 228.865C463.246 228.564 463.018 228.327 462.728 228.154C462.439 227.98 462.108 227.892 461.736 227.89C461.469 227.887 461.194 227.928 460.913 228.013C460.632 228.096 460.4 228.202 460.219 228.333L459.23 228.213L459.758 223.918H464.292V224.855H460.645L460.338 227.429H460.389C460.568 227.287 460.792 227.169 461.062 227.076C461.332 226.982 461.613 226.935 461.906 226.935C462.44 226.935 462.916 227.063 463.334 227.319C463.754 227.571 464.084 227.918 464.322 228.358C464.564 228.799 464.684 229.302 464.684 229.867C464.684 230.424 464.559 230.921 464.309 231.358C464.062 231.793 463.721 232.137 463.287 232.39C462.852 232.64 462.358 232.765 461.804 232.765ZM470.826 231.009V230.549C470.826 230.23 470.891 229.939 471.022 229.675C471.156 229.408 471.349 229.195 471.602 229.036C471.857 228.874 472.167 228.793 472.531 228.793C472.9 228.793 473.21 228.874 473.46 229.036C473.71 229.195 473.899 229.408 474.026 229.675C474.154 229.939 474.218 230.23 474.218 230.549V231.009C474.218 231.327 474.153 231.62 474.022 231.887C473.894 232.151 473.704 232.364 473.451 232.526C473.201 232.685 472.894 232.765 472.531 232.765C472.161 232.765 471.85 232.685 471.597 232.526C471.345 232.364 471.153 232.151 471.022 231.887C470.891 231.62 470.826 231.327 470.826 231.009ZM471.695 230.549V231.009C471.695 231.273 471.758 231.51 471.883 231.721C472.008 231.928 472.224 232.032 472.531 232.032C472.829 232.032 473.039 231.928 473.161 231.721C473.286 231.51 473.349 231.273 473.349 231.009V230.549C473.349 230.284 473.289 230.049 473.17 229.841C473.051 229.631 472.838 229.526 472.531 229.526C472.232 229.526 472.018 229.631 471.887 229.841C471.759 230.049 471.695 230.284 471.695 230.549ZM466.48 226.015V225.554C466.48 225.236 466.545 224.945 466.676 224.681C466.809 224.414 467.002 224.201 467.255 224.042C467.511 223.88 467.82 223.799 468.184 223.799C468.553 223.799 468.863 223.88 469.113 224.042C469.363 224.201 469.552 224.414 469.68 224.681C469.808 224.945 469.872 225.236 469.872 225.554V226.015C469.872 226.333 469.806 226.625 469.676 226.892C469.548 227.157 469.357 227.37 469.105 227.532C468.855 227.691 468.548 227.77 468.184 227.77C467.815 227.77 467.504 227.691 467.251 227.532C466.998 227.37 466.806 227.157 466.676 226.892C466.545 226.625 466.48 226.333 466.48 226.015ZM467.349 225.554V226.015C467.349 226.279 467.411 226.516 467.536 226.726C467.661 226.934 467.877 227.037 468.184 227.037C468.482 227.037 468.693 226.934 468.815 226.726C468.94 226.516 469.002 226.279 469.002 226.015V225.554C469.002 225.29 468.943 225.054 468.823 224.847C468.704 224.637 468.491 224.532 468.184 224.532C467.886 224.532 467.671 224.637 467.541 224.847C467.413 225.054 467.349 225.29 467.349 225.554ZM466.803 232.645L472.803 223.918H473.775L467.775 232.645H466.803Z" fill="#00F9FF"/>
<path d="M224.315 122.129V121.259L228.15 115.191H228.78V116.538H228.354L225.457 121.123V121.191H230.621V122.129H224.315ZM228.423 123.919V121.865V121.46V115.191H229.428V123.919H228.423ZM235.065 124.038C234.423 124.038 233.876 123.863 233.424 123.514C232.973 123.161 232.627 122.652 232.389 121.984C232.15 121.313 232.031 120.504 232.031 119.555C232.031 118.612 232.15 117.806 232.389 117.139C232.63 116.468 232.977 115.957 233.429 115.605C233.883 115.25 234.429 115.072 235.065 115.072C235.701 115.072 236.245 115.25 236.697 115.605C237.152 115.957 237.498 116.468 237.737 117.139C237.978 117.806 238.099 118.612 238.099 119.555C238.099 120.504 237.98 121.313 237.741 121.984C237.502 122.652 237.157 123.161 236.706 123.514C236.254 123.863 235.707 124.038 235.065 124.038ZM235.065 123.1C235.701 123.1 236.196 122.794 236.548 122.18C236.9 121.566 237.076 120.691 237.076 119.555C237.076 118.799 236.995 118.156 236.833 117.625C236.674 117.093 236.444 116.688 236.143 116.41C235.845 116.132 235.485 115.992 235.065 115.992C234.434 115.992 233.941 116.304 233.586 116.926C233.231 117.545 233.054 118.421 233.054 119.555C233.054 120.311 233.133 120.953 233.292 121.481C233.451 122.009 233.68 122.411 233.978 122.687C234.279 122.963 234.642 123.1 235.065 123.1ZM244.167 122.282V121.822C244.167 121.504 244.233 121.213 244.363 120.948C244.497 120.681 244.69 120.468 244.943 120.309C245.198 120.147 245.508 120.066 245.872 120.066C246.241 120.066 246.551 120.147 246.801 120.309C247.051 120.468 247.24 120.681 247.367 120.948C247.495 121.213 247.559 121.504 247.559 121.822V122.282C247.559 122.6 247.494 122.893 247.363 123.16C247.235 123.424 247.045 123.637 246.792 123.799C246.542 123.958 246.235 124.038 245.872 124.038C245.502 124.038 245.191 123.958 244.938 123.799C244.686 123.637 244.494 123.424 244.363 123.16C244.233 122.893 244.167 122.6 244.167 122.282ZM245.037 121.822V122.282C245.037 122.546 245.099 122.784 245.224 122.994C245.349 123.201 245.565 123.305 245.872 123.305C246.17 123.305 246.38 123.201 246.502 122.994C246.627 122.784 246.69 122.546 246.69 122.282V121.822C246.69 121.558 246.63 121.322 246.511 121.115C246.392 120.904 246.179 120.799 245.872 120.799C245.573 120.799 245.359 120.904 245.228 121.115C245.1 121.322 245.037 121.558 245.037 121.822ZM239.821 117.288V116.828C239.821 116.509 239.886 116.218 240.017 115.954C240.15 115.687 240.343 115.474 240.596 115.315C240.852 115.153 241.162 115.072 241.525 115.072C241.894 115.072 242.204 115.153 242.454 115.315C242.704 115.474 242.893 115.687 243.021 115.954C243.149 116.218 243.213 116.509 243.213 116.828V117.288C243.213 117.606 243.147 117.899 243.017 118.166C242.889 118.43 242.698 118.643 242.446 118.805C242.196 118.964 241.889 119.044 241.525 119.044C241.156 119.044 240.845 118.964 240.592 118.805C240.339 118.643 240.147 118.43 240.017 118.166C239.886 117.899 239.821 117.606 239.821 117.288ZM240.69 116.828V117.288C240.69 117.552 240.752 117.789 240.877 118C241.002 118.207 241.218 118.311 241.525 118.311C241.823 118.311 242.034 118.207 242.156 118C242.281 117.789 242.343 117.552 242.343 117.288V116.828C242.343 116.563 242.284 116.328 242.164 116.12C242.045 115.91 241.832 115.805 241.525 115.805C241.227 115.805 241.012 115.91 240.882 116.12C240.754 116.328 240.69 116.563 240.69 116.828ZM240.144 123.919L246.144 115.191H247.116L241.116 123.919H240.144Z" fill="#00F9FF"/>
<path d="M1.39334 335.499L72.0088 252.018L145.115 232.956L186.648 263.96L248.963 157.418L292.186 197.158L344.51 58.8459L398.524 72.3481L462.499 223.397L484.11 -13.4873" stroke="url(#paint0_linear_263_6182)" stroke-width="1.2" stroke-miterlimit="10"/>
</g>
<defs>
<linearGradient id="paint0_linear_263_6182" x1="6.79172e-07" y1="161.474" x2="485.859" y2="161.474" gradientUnits="userSpaceOnUse">
<stop stop-color="#3D96CD" stop-opacity="0.24"/>
<stop offset="0.09" stop-color="#399CD0" stop-opacity="0.29"/>
<stop offset="0.25" stop-color="#2FABD8" stop-opacity="0.41"/>
<stop offset="0.47" stop-color="#1FC5E5" stop-opacity="0.61"/>
<stop offset="0.73" stop-color="#09E8F6" stop-opacity="0.88"/>
<stop offset="0.84" stop-color="#00F9FF"/>
</linearGradient>
<clipPath id="clip0_263_6182">
<rect width="541" height="355" fill="white" transform="translate(0 -18.423)"/>
</clipPath>
</defs>
</svg>
